<?xml version="1.0" encoding="utf-8" ?><svg xmlns="http://www.w3.org/2000/svg" xmlns:xlink="http://www.w3.org/1999/xlink" width="1024" height="1024" viewBox="0 0 1024 1024"><path fill="#F8F8F6" d="M0 0L1024 0L1024 1024L0 1024L0 0Z"/><path fill="#BB1B18" d="M505.287 208.008C673.499 204.195 813.036 337.3 817.16 505.505C821.283 673.71 688.437 813.492 520.24 817.927C351.603 822.373 211.374 689.103 207.24 520.458C203.105 351.813 336.635 211.831 505.287 208.008Z"/><path fill="#FBC72D" d="M257.419 673.807C188.85 564.992 196.889 424.654 277.434 324.38C357.979 224.106 493.281 185.992 614.323 229.481C695.497 258.646 760.287 321.192 792.292 401.289C825.657 484.786 819.999 578.818 776.865 657.712C725.608 751.464 628.545 811.07 521.747 814.379C414.949 817.688 314.382 764.206 257.419 673.807Z"/><path fill="#F8F8F6" d="M257.419 673.807C188.85 564.992 196.889 424.654 277.434 324.38C357.979 224.106 493.281 185.992 614.323 229.481C611.08 230.517 595.19 225.252 590.563 224.182C575.974 220.806 561.288 217.846 546.389 216.217C424.614 203.152 307.227 265.844 250.36 374.315C221.109 431.03 211.259 503.909 220.768 566.753C223.489 583.772 227.552 600.55 232.92 616.928C236.655 628.669 241.954 639.632 247.045 650.776C248.513 653.988 257.364 671.669 257.419 673.807Z"/><path fill="#F8F8F6" d="M776.865 657.712C776.104 655.777 780.908 647.593 782.041 644.957C789.584 627.401 795.533 609.065 800.065 590.553C811.621 541.842 812.505 491.208 802.658 442.123C800.899 433.788 798.939 425.752 796.705 417.549C795.712 413.904 791.993 404.172 792.292 401.289C825.657 484.786 819.999 578.818 776.865 657.712Z"/><path fill="#BB1B18" d="M504.1 258.452C644.907 253.73 762.812 364.189 767.274 505.004C771.735 645.819 661.058 763.52 520.235 767.721C379.78 771.912 262.453 661.586 258.003 521.139C253.553 380.691 363.661 263.161 504.1 258.452Z"/><path fill="#BB1B18" d="M699.007 682.111C605.909 784.825 447.266 792.878 344.247 700.119C241.227 607.36 232.653 448.744 325.073 345.42C417.493 242.097 576.08 233.001 679.707 325.081C783.334 417.161 792.95 575.718 701.211 679.646C700.482 680.473 699.747 681.294 699.007 682.111Z"/><path fill="#FBF8E9" d="M699.007 682.111C605.909 784.825 447.266 792.878 344.247 700.119C241.227 607.36 232.653 448.744 325.073 345.42C417.493 242.097 576.08 233.001 679.707 325.081C783.334 417.161 792.95 575.718 701.211 679.646C679.839 669.631 662.703 661.781 646.342 643.482C642.406 639.081 638.552 634.722 635.688 629.495C644.594 625.925 653.463 622.542 662.081 618.027C716.75 589.386 753.072 532.52 728.72 470.647C715.719 437.614 691.324 417.959 660.588 401.929C653.705 390.007 644.529 374.868 634.746 365.034C567.69 297.626 456.008 290.577 375.124 336.159C307.362 374.346 278.021 453.506 318.659 522.639C336.425 552.864 362.568 574.907 393.159 591.18C384.711 615.034 375.06 631.873 354.755 647.828C350.555 651.475 342.722 655.951 339.919 660.646C333.813 670.873 344.414 689.003 356.703 686.498C375.325 682.701 396.4 677.428 414.163 670.857C420.876 668.403 427.424 665.52 433.767 662.227C449.705 653.866 465.468 641.728 479.54 630.615C483.531 627.462 490.504 622.005 493.82 618.353C520.564 630.011 539.919 635.653 569.214 637.638C592.497 664.944 610.33 672.969 647.024 676.94C662.045 678.566 687.484 674.532 699.007 682.111Z"/><path fill="#FBF8E9" d="M574.31 395.719C606.229 394.239 637.895 402.014 665.5 418.107C752.964 469.69 736.229 569.421 649.303 609.182C637.316 614.665 625.687 617.918 612.941 621.17C622.103 641.888 630.484 649.8 646.73 664.829C639.217 663.668 633.903 662.706 626.617 660.582C603.361 653.031 592.246 644.528 578.818 624.255L578.043 624.31C570.847 624.762 563.944 623.819 556.901 622.982C492.586 615.325 425.755 559.179 442.535 488.802C452.698 446.175 490.977 416.129 531.054 403.169C545.712 398.429 558.978 396.514 574.31 395.719Z"/><path fill="#BB1B18" d="M517.449 478.326C531.175 477.929 542.649 488.683 543.142 502.405C543.635 516.128 532.963 527.677 519.244 528.267C505.388 528.862 493.698 518.06 493.2 504.2C492.702 490.341 503.586 478.727 517.449 478.326Z"/><path fill="#BB1B18" d="M642.907 478.849C656.551 477.097 669.031 486.741 670.776 500.387C672.52 514.032 662.868 526.506 649.221 528.243C635.586 529.977 623.125 520.335 621.382 506.701C619.639 493.067 629.274 480.6 642.907 478.849Z"/><path fill="#BB1B18" d="M579.975 478.602C593.623 477.504 605.594 487.637 606.764 501.279C607.935 514.921 597.864 526.945 584.229 528.188C570.491 529.439 558.357 519.277 557.178 505.533C555.999 491.788 566.225 479.708 579.975 478.602Z"/><path fill="#FBF8E9" d="M478.366 321.218C484.688 320.659 492.77 320.907 499.15 321.236C552.208 323.965 614.036 349.284 641.114 397.147C605.988 387.917 580.888 383.895 544.497 391.447C506.089 399.691 467.759 422.091 446.996 455.941C413.492 510.56 436.911 572.662 487.803 605.952C495.537 611.011 503.519 614.724 511.004 619.488C478.209 609.72 455.063 599.508 434.727 570.121C396.206 514.457 419.524 446.487 473.133 410.91C517.711 381.326 570.156 374.097 622.02 384.054C613.086 371.262 587.959 355.86 573.839 348.941C527.025 326.002 471.464 322.03 422.097 339.584C411.463 343.451 402.127 347.728 392.088 352.959C303.699 399.024 300.45 503.143 382.122 558.445C395.353 567.404 407.21 573.064 421.981 579.854C414.446 610.703 399.66 641.209 374.401 661.215C406.758 656.374 448.981 632.43 471.182 608.361L478.114 611.901C462.095 626.209 441.761 641.734 422.803 651.465C412.85 656.575 360.039 673.694 352.604 671.127C351.522 668.709 370.776 654.156 374.99 649.698C395.51 627.986 402.665 612.294 410.907 584.435C391.005 573.163 379.298 568.228 361.324 552.325C336 530.171 315.499 497.135 314.58 462.464C312.194 372.438 400.946 325.293 478.366 321.218Z"/><path fill="#FBF8E9" d="M388.673 441.126C401.908 439.222 414.19 448.381 416.139 461.61C418.089 474.838 408.971 487.152 395.749 489.147C382.464 491.151 370.078 481.979 368.119 468.687C366.16 455.394 375.373 443.04 388.673 441.126Z"/><path fill="#BB1B18" d="M249.857 103.242C253.179 105.08 270.892 122.72 275.095 126.339L346.723 187.276C354.153 193.663 368.239 204.741 374.502 211.102C370.434 222.711 358.335 235.432 349.005 243.143C332.719 257.068 308.432 267.785 286.814 268.014C284.67 261.603 282.639 250.758 281.14 243.832L273.19 207.836C265.534 173.006 257.207 138.056 249.857 103.242Z"/><path fill="#FBC72D" d="M261.949 123.816C263.714 125.499 265.469 127.192 267.215 128.895C270.076 130.902 272.652 133.246 275.271 135.555C284.665 143.837 294.321 151.818 303.905 159.877C317.407 171.271 330.843 182.741 344.212 194.289C350.752 199.836 359.869 206.831 365.906 212.509C346.47 238.323 328.563 252.141 296.251 258.741C294.694 259.038 294.412 259.177 292.811 259.027C290.631 256.006 265.866 138.85 261.949 123.816Z"/><path fill="#F8F8F6" d="M261.949 123.816C263.714 125.499 265.469 127.192 267.215 128.895C268.285 136.492 272.294 150.976 274.09 159.017L288.92 225.992C291.126 235.942 294.629 249.117 296.251 258.741C294.694 259.038 294.412 259.177 292.811 259.027C290.631 256.006 265.866 138.85 261.949 123.816Z"/><path fill="#BB1B18" d="M815.652 650.416C817.211 650.4 822.439 659.599 823.787 661.593C826.473 665.507 829.273 669.341 832.183 673.092C860.569 709.943 893.103 741.251 922.203 776.991C907.404 773.706 892.371 767.793 877.25 763.605C837.196 753.737 798.306 747.409 757.528 741.542C757.001 709.946 766.988 681.005 794.117 662.168C800.78 657.542 808.399 654.053 815.652 650.416Z"/><path fill="#FBC72D" d="M809.735 661.172C811.536 660.336 811.86 659.797 813.499 660.018C829.987 685.191 849.398 707.661 869.746 729.769C879.774 740.664 890.326 751.936 901.233 761.902C899.061 761.225 896.663 760.541 894.553 759.749C876.682 754.682 858.593 751.486 840.493 747.591C815.674 742.251 790.932 739.326 765.939 735.283C768.254 702.248 781.294 678.47 809.735 661.172Z"/><path fill="#F8F8F6" d="M809.735 661.172C811.536 660.336 811.86 659.797 813.499 660.018C829.987 685.191 849.398 707.661 869.746 729.769C879.774 740.664 890.326 751.936 901.233 761.902C899.061 761.225 896.663 760.541 894.553 759.749C892.331 755.88 885.593 752.957 882.389 749.601C859.006 725.109 836.039 699.248 816.991 671.192C814.708 667.829 812.492 664.114 809.735 661.172Z"/><path fill="#BB1B18" d="M104.491 250.125C143.228 259.632 180.262 267.19 219.174 275.665L248.837 282.112C253.959 283.188 261.681 284.414 266.35 286.081C267.738 312.811 258.392 330.975 241.84 351.162C233.656 360.862 220.144 370.49 208.402 375.221C206.669 373.359 205.075 370.894 203.517 368.839C186.64 346.568 168.824 324.915 151.322 303.127C140.397 289.527 127.75 276.99 116.465 263.703C113.223 259.885 106.835 254.009 104.491 250.125Z"/><path fill="#FBC72D" d="M126.234 263.573L225.34 285.534C229.886 286.55 256.507 291.462 258.322 293.205C258.298 294.378 258.276 295.099 258.136 296.26C253.53 327.804 237.521 349.744 209.991 365.754C196.294 346.655 179.058 326.072 164.303 307.64C154.059 294.843 142.266 282.823 132.352 269.409L126.234 263.573Z"/><path fill="#F8F8F6" d="M126.234 263.573L225.34 285.534C229.886 286.55 256.507 291.462 258.322 293.205C258.298 294.378 258.276 295.099 258.136 296.26C252.422 295.474 239.566 292.288 233.474 290.988C214.116 287.018 194.823 282.74 175.601 278.155C161.347 274.874 146.33 272.907 132.352 269.409L126.234 263.573Z"/><path fill="#BB1B18" d="M287.875 758.287C301.675 759.419 311.889 759.666 324.587 765.597C348.403 776.722 363.696 791.123 373.015 815.582C363.373 824.27 353.375 831.844 343.486 840.212L294.345 882.557C279.462 895.863 263.486 908.662 248.741 921.911C251.454 910.039 254.721 898.792 257.498 887.14L287.875 758.287Z"/><path fill="#FBC72D" d="M294.122 766.41C301.207 767.627 306.609 768.639 313.421 770.865C334.431 778.415 356.394 793.135 365.441 814.42C343.098 830.056 322.731 849.338 301.831 866.91C292.845 874.465 279.97 886.377 270.413 892.678C267.424 895.495 265.081 897.839 262.293 900.85C264.886 891.718 267.388 878.669 269.693 869.019C277.891 834.694 285.448 800.643 294.122 766.41Z"/><path fill="#F8F8F6" d="M294.122 766.41C301.207 767.627 306.609 768.639 313.421 770.865C311.061 772.176 302.284 770.263 298.946 769.939C293.424 793.39 286.803 816.826 281.506 840.315C278.327 854.417 270.515 878.415 270.413 892.678C267.424 895.495 265.081 897.839 262.293 900.85C264.886 891.718 267.388 878.669 269.693 869.019C277.891 834.694 285.448 800.643 294.122 766.41Z"/><path fill="#BB1B18" d="M774.347 104.447C774.819 107.821 745.934 226.581 743.992 235.636C743.142 239.603 739.972 253.858 738.999 258.874C738.67 260.571 737.923 262.772 737.055 264.364C735.75 265.258 734.644 265.448 733.077 265.522C710.581 266.58 691.123 257.365 674.444 243.126C663.192 232.377 657.24 223.887 650.106 209.98C661.889 201.587 681.15 184.209 692.76 174.267L774.347 104.447Z"/><path fill="#FBC72D" d="M662.804 215.451C661.897 214.083 661.202 213.347 661.084 211.719C662.491 209.644 681.02 194.129 684.393 191.251C710.64 168.856 737.027 147.897 762.524 124.554C761.906 127.383 761.052 130.356 760.304 133.168C754.019 160.896 747.528 188.577 740.831 216.208C738.031 228.044 734.245 247.196 730.627 258.44C701.384 254.517 677.975 241.51 662.804 215.451Z"/><path fill="#F8F8F6" d="M662.804 215.451C661.897 214.083 661.202 213.347 661.084 211.719C662.491 209.644 681.02 194.129 684.393 191.251C710.64 168.856 737.027 147.897 762.524 124.554C761.906 127.383 761.052 130.356 760.304 133.168C754.973 136.181 740.43 149.906 734.727 154.706L662.804 215.451Z"/><path fill="#BB1B18" d="M730.473 757.708C736.649 757.363 737.25 757.323 738.517 763.495C748.026 809.791 758.064 855.858 770.397 901.501C772.36 908.764 774.516 915.949 776.468 923.206C762.569 909.253 749.167 897.826 734.54 884.636C716.357 869.243 697.861 854.223 679.062 839.587C670.233 832.704 657.265 824.02 649.455 816.148C652.378 808.072 659.366 797.75 665.001 791.29C683.161 770.471 703.31 759.987 730.473 757.708Z"/><path fill="#FBC72D" d="M709.425 771.27C716.733 768.835 723.474 767.051 731.204 766.393C733.066 773.301 734.557 780.792 735.948 787.818C743.353 825.237 753.41 862.021 762.228 899.07L758.489 895.121C755.54 893.575 744.275 883.022 740.799 880.137C732.175 872.982 723.514 865.333 714.831 858.197C696.307 842.974 677.174 829.289 658.657 813.991C670.694 796.653 688.113 776.885 709.425 771.27Z"/><path fill="#F8F8F6" d="M709.425 771.27C716.733 768.835 723.474 767.051 731.204 766.393C733.066 773.301 734.557 780.792 735.948 787.818C743.353 825.237 753.41 862.021 762.228 899.07L758.489 895.121C758.098 893.099 756.099 887.83 755.372 885.365C753.678 879.614 752.369 874.274 751.01 868.42L728.275 769.04C723.116 769.977 714.32 772.009 709.425 771.27Z"/><path fill="#BB1B18" d="M512.108 19.3561C513.237 22.1966 514.923 28.9789 515.802 32.1197C518.393 41.4538 521.03 50.7747 523.715 60.082C535.724 100.22 549.341 141.073 562.78 180.771C563.017 181.473 562.052 182.885 561.53 183.27C548.115 193.17 528.772 197.442 513.125 198.273C498.204 198.517 473.589 193.332 462.515 183.442C463.039 181.193 463.743 179.05 464.435 176.851C476.599 138.183 488.782 99.5293 500.505 60.7216C504.638 47.0376 507.839 33.028 512.108 19.3561Z"/><path fill="#FBC72D" d="M512.382 45.9132L515.622 58.8088C522.153 81.8334 530.373 104.948 537.705 127.836C541.401 139.732 545.267 151.574 549.301 163.36C550.811 167.675 553.432 175.512 555.617 179.299C533.115 190.136 511.965 194.449 486.781 187.246C482.343 185.976 476.919 182.59 473.317 181.506L472.267 180.496C471.943 177.797 477.929 159.294 479.149 155.525C490.945 119.088 501.887 82.7324 512.382 45.9132Z"/><path fill="#F8F8F6" d="M512.382 45.9132L515.622 58.8088C511.306 63.7153 504.723 88.2139 502.363 95.653L483.467 154.735C481.72 160.175 476.484 177.269 473.317 181.506L472.267 180.496C471.943 177.797 477.929 159.294 479.149 155.525C490.945 119.088 501.887 82.7324 512.382 45.9132Z"/><path fill="#BB1B18" d="M840.757 462.556C852.715 466.876 864.676 469.991 876.846 473.625L927.47 489.151L975.467 504.254C984.239 507.003 992.17 509.894 1001.17 512.208C986.052 517.161 965.111 523.451 949.845 527.478C926.725 534.299 904.762 541.356 881.905 549.041C866.242 554.307 854.367 557.269 838.857 563.731C821.336 533.297 823.307 492.541 840.757 462.556Z"/><path fill="#FBC72D" d="M844.601 472.638C845.861 472.042 863.326 477.824 866.255 478.725L937.271 500.615C949.616 504.394 962.084 508.582 974.558 511.829L966.928 514.93C962.873 514.851 912.56 531.889 905.998 534.156C887.664 540.49 860.289 546.444 843.239 553.848C842.406 552.181 841.635 550.483 840.927 548.76C830.896 523.648 834.178 496.968 844.601 472.638Z"/><path fill="#F8F8F6" d="M844.601 472.638C845.861 472.042 863.326 477.824 866.255 478.725L937.271 500.615C949.616 504.394 962.084 508.582 974.558 511.829L966.928 514.93C960.528 509.892 901.915 494.288 889.554 489.721C878.792 485.744 858.298 480.637 847.135 475.463C845.856 474.87 845.219 473.818 844.601 472.638Z"/><path fill="#BB1B18" d="M212.22 649.751C218.133 651.86 237.266 667.272 241.606 672.532C259.333 694.017 265.89 710.749 264.499 737.828L147.346 764.407C134.427 767.482 115.877 771.062 103.669 774.836C108.296 769.2 113.692 763.994 118.421 758.415C148.894 722.47 185.515 688.591 212.22 649.751Z"/><path fill="#FBC72D" d="M124.739 762.201C138.686 747.746 152.577 730.877 166.194 715.968C182.739 697.855 199.554 679.898 215.353 661.138C217.559 662.52 219.247 663.834 221.307 665.402C242.763 682.336 256.432 704.405 257.661 732.192C244.52 735.68 230.268 738.634 216.929 741.656C189.727 748.043 162.412 753.939 134.997 759.342C132.492 759.851 127.4 761.457 124.739 762.201Z"/><path fill="#F8F8F6" d="M124.739 762.201C138.686 747.746 152.577 730.877 166.194 715.968C182.739 697.855 199.554 679.898 215.353 661.138C217.559 662.52 219.247 663.834 221.307 665.402C209.146 678.376 197.002 692.563 184.882 705.166L153.569 738.226C148.725 743.384 138.544 753.724 134.997 759.342C132.492 759.851 127.4 761.457 124.739 762.201Z"/><path fill="#BB1B18" d="M920.194 250.072L920.771 250.32C920.633 250.737 894.368 278.412 891.701 281.242C873.217 300.881 855.246 320.995 837.804 341.564C831.176 349.286 816.942 367.11 810.19 373.635C797.88 367.566 790.846 361.567 781.598 351.662C765.884 333.78 757.537 311.753 758.075 287.989C763.578 286.011 772.45 284.191 778.273 282.889L808.922 276.069C844.779 268.021 884.947 259.436 920.194 250.072Z"/><path fill="#FBC72D" d="M766.498 298.166C766.257 295.908 765.868 295.683 766.624 293.882C776.192 290.882 797.189 286.711 807.606 284.366C838.232 277.472 868.162 270.874 898.67 263.386C896.605 265.55 894.513 267.69 892.397 269.804C883.5 280.858 867.884 295.75 857.808 307.163L824.838 345C820.062 350.571 813.642 358.869 808.832 363.912C787.623 348.784 768.752 325.006 766.498 298.166Z"/><path fill="#F8F8F6" d="M766.498 298.166C766.257 295.908 765.868 295.683 766.624 293.882C776.192 290.882 797.189 286.711 807.606 284.366C838.232 277.472 868.162 270.874 898.67 263.386C896.605 265.55 894.513 267.69 892.397 269.804C861.677 276.504 830.863 282.925 800.238 289.87C790.96 291.975 774.427 294.786 766.498 298.166Z"/><path fill="#BB1B18" d="M184.867 463.028C188.419 465.618 193.756 482.339 194.765 486.929C200.776 514.299 196.857 539.537 182.456 563.35C176.724 561.786 168.411 558.358 162.532 556.281L125.927 543.683C108.395 537.778 89.8193 533.181 72.0313 527.277C55.8723 522.915 38.3963 517.353 22.3882 512.308C48.6566 505.038 75.9171 496.525 102.305 488.832L150.812 474.212C162.877 470.476 172.995 467.541 184.867 463.028Z"/><path fill="#FBC72D" d="M49.5891 512.743C72.4317 504.666 96.9553 498.81 120.172 491.851C140.487 485.762 160.811 478.341 181.086 472.309C182.53 472.94 182.344 473.543 183.214 475.478C191.423 492.831 191.368 526.205 184.396 544.142C182.783 548.291 181.355 551.372 179.236 555.288C143.521 540.923 107.691 531.124 71.0896 519.462C66.1524 517.889 60.6982 516.42 55.8996 514.563C53.7609 513.686 51.8256 513.291 49.5891 512.743Z"/><path fill="#F8F8F6" d="M49.5891 512.743C72.4317 504.666 96.9553 498.81 120.172 491.851C140.487 485.762 160.811 478.341 181.086 472.309C182.53 472.94 182.344 473.543 183.214 475.478C160.697 482.689 137.447 491.172 115.028 497.72L75.0842 509.051C69.7853 510.542 60.6779 512.778 55.8996 514.563C53.7609 513.686 51.8256 513.291 49.5891 512.743Z"/><path fill="#BB1B18" d="M502.845 827.207C518.156 825.256 549.414 830.014 560.835 841.257C554.624 853.693 551.865 868.367 547.885 881.727C536.502 919.936 524.166 959.138 514.288 997.684L512.485 1004.54C501.656 967.259 491.357 929.802 479.311 892.847C473.582 875.274 466.714 858.28 461.017 840.383C471.349 833.082 490.374 828.309 502.845 827.207Z"/><path fill="#FBC72D" d="M469.948 845.546C470.208 844.257 469.923 844.236 470.879 843.748C473.651 842.333 477.712 841.431 480.734 840.511C499.66 834.754 517.758 833.605 536.99 838.902C541.582 840.189 546.082 841.786 550.459 843.681C540.902 872.853 532.881 903.48 524.291 933.019C520.077 947.506 515.179 962.853 512.037 977.532L508.556 964.931C507.406 957.546 501.946 942.023 499.644 934.137C492.941 911.184 485.629 888.134 477.465 865.661C476.057 861.783 471.702 848.588 469.948 845.546Z"/><path fill="#F8F8F6" d="M469.948 845.546C470.208 844.257 469.923 844.236 470.879 843.748C473.651 842.333 477.712 841.431 480.734 840.511C499.66 834.754 517.758 833.605 536.99 838.902C541.582 840.189 546.082 841.786 550.459 843.681C540.902 872.853 532.881 903.48 524.291 933.019C520.077 947.506 515.179 962.853 512.037 977.532L508.556 964.931C513.751 958.023 522.714 923.747 525.842 913.592C532.65 890.935 539.71 868.354 547.021 845.854C530.386 837.42 506.777 837.203 488.851 841.135C483.339 842.344 475.224 845.177 469.948 845.546Z"/><path fill="#BB1B18" d="M385.949 109.135C386.473 109.257 387.748 109.655 387.816 110.034C388.106 111.656 388.174 117.47 388.245 118.674C388.512 122.967 389.225 127.221 390.37 131.367C397.424 156.799 421.095 179.406 443.926 191.253C447.865 193.296 451.783 195.27 455.64 197.478C451.409 199.075 434.622 202.719 428.878 204.323C413.921 208.614 403.779 213.066 389.986 219.993C388.467 212.562 386.679 203.708 384.432 196.537C380.566 184.199 376.251 173.384 374.155 160.521C371.396 143.582 375.72 123.055 385.949 109.135Z"/><path fill="#F17E1E" d="M384.131 117.783C387.351 145.743 401.613 164.928 423.128 182.541C430.313 188.422 436.22 191.375 443.698 196.381C430.163 199.922 405.222 206.651 393.698 214.299C392.863 214.366 393.282 214.464 392.503 213.812C387.227 187.37 372.594 162.238 378.507 136.431C379.268 130.472 381.817 123.336 384.131 117.783Z"/><path fill="#F8F8F6" d="M378.507 136.431C378.971 138.79 378.776 142.088 378.81 144.606C378.878 149.594 379.785 154.408 380.416 158.906C381.814 168.874 395.315 206.874 393.698 214.299C392.863 214.366 393.282 214.464 392.503 213.812C387.227 187.37 372.594 162.238 378.507 136.431Z"/><path fill="#BB1B18" d="M633.779 109.416C634.671 109.964 635.716 110.233 635.3 111.506C633.855 115.933 630.952 121.353 629.122 125.593C626.528 131.46 624.694 137.633 623.661 143.964C620.46 164.552 623.574 181.879 630.927 201.093C632.923 206.307 635.849 212.108 637.235 217.376C629.52 216.362 607.387 208.731 597.99 205.877C587.242 202.763 580.074 201.508 569.397 199.148C581.403 185.496 584.768 176.561 590.107 159.484C596.266 139.789 614.808 118.269 633.779 109.416Z"/><path fill="#F17E1E" d="M620.767 123.25C622.306 121.485 625.524 119.261 627.49 117.779C614.016 150.028 615.525 174.888 628.865 207.329C629.557 209.01 630.262 210.686 630.979 212.357C615.747 207.672 600.911 201.962 585.301 198.639C582.975 198.143 580.241 197.674 577.976 197.052L577.881 196.047C584.241 186.057 587.755 179.303 591.282 168.006C597.102 149.367 604.997 135.249 620.767 123.25Z"/><path fill="#F8F8F6" d="M620.767 123.25C620.117 124.586 616.488 128.445 615.344 129.642C600.893 144.767 595.628 164.075 587.513 182.747C586.11 185.974 581.452 196.248 577.976 197.052L577.881 196.047C584.241 186.057 587.755 179.303 591.282 168.006C597.102 149.367 604.997 135.249 620.767 123.25Z"/><path fill="#BB1B18" d="M823.644 574.163C828.015 575.064 852.267 585.146 857.256 587.36C881.966 598.324 904.554 611.803 914.68 638.204C907.184 633.926 901.189 630.515 893.125 627.25C865.565 617.323 840.701 626.836 814.564 636.204C812.495 636.946 810.203 637.355 808.106 636.596C807.147 635.272 807.234 633.802 807.892 632.291C816.549 612.396 820.658 595.644 823.644 574.163Z"/><path fill="#F17E1E" d="M826.532 578.897C833.597 579.839 879.079 604.02 887.119 610.25C892.403 614.344 896.549 617.407 900.707 622.811C901.984 623.959 903.519 626.379 904.553 627.868C903.51 627.178 901.769 626.027 900.624 625.539C869.46 612.261 841.694 622.576 812.675 633.009C820.485 613.721 825.455 600.243 826.532 578.897Z"/><path fill="#F8F8F6" d="M826.532 578.897C833.597 579.839 879.079 604.02 887.119 610.25C892.403 614.344 896.549 617.407 900.707 622.811C900.344 622.75 887.747 613.589 886.356 612.356C879.805 606.552 828.948 582.285 826.532 578.897Z"/><path fill="#BB1B18" d="M111.768 386.672C114.305 387.516 121.644 393.393 125.407 395.103C144.764 403.829 166.086 401.324 186.122 396.791C192.076 395.444 212.917 386.468 216.667 388.402C217.082 390.507 207.645 417.511 206.277 422.049C203.471 429.814 201.855 439.489 198.603 447.189C190.859 444.647 182.636 441.143 174.985 438.093C159.902 432.082 143.581 427.252 130.811 416.926C121.342 409.269 113.067 399.164 111.768 386.672Z"/><path fill="#F17E1E" d="M119.725 397.656L119.733 397.358C120.429 397.145 125.594 400.096 127.368 400.755C152.176 409.967 187.296 403.32 210.762 392.712L211.277 393.153L210.761 394.739C206.091 409.308 199.955 427.311 196.535 441.966C183.17 436.848 169.584 431.89 156.301 426.606C146.554 422.728 121.509 408.973 119.725 397.656Z"/><path fill="#F8F8F6" d="M119.725 397.656L119.733 397.358C120.429 397.145 125.594 400.096 127.368 400.755C152.176 409.967 187.296 403.32 210.762 392.712L211.277 393.153L210.761 394.739C203.819 395.779 195.741 400.673 188.644 402.857C171.698 408.075 151.178 409.806 133.999 404.543C127.636 402.489 125.062 400.526 119.725 397.656Z"/><path fill="#BB1B18" d="M874.612 376.225C889.027 376.495 903.261 376.372 913.334 388.3C906.791 388.481 899.99 389.085 893.845 391.461C870.474 400.498 849.172 415.784 838.287 438.759C834.956 447.488 837.056 445.341 828.188 447.487C827.046 444.61 826.099 441.385 825.11 438.426C819.72 422.29 814.508 406.279 808.525 390.348C824.331 383.133 857.151 376.909 874.612 376.225Z"/><path fill="#F17E1E" d="M842.531 384.746C864.006 379.413 873.708 378.919 894.956 381.998C896.558 382.263 897.792 382.204 898.912 383.107L897.707 383.575C893.008 385.794 887.754 389.517 883.01 391.86C859.114 403.662 844.193 416.725 832.499 441.385C829.064 433.647 826.484 422.928 823.877 414.787C821.401 407.058 818.777 400.026 815.905 392.41C820.326 390.695 838.319 384.789 842.531 384.746Z"/><path fill="#F8F8F6" d="M842.531 384.746C864.006 379.413 873.708 378.919 894.956 381.998L891.977 383.442C885.069 383.433 877.031 382.538 869.86 382.46C864.477 382.402 844.699 385.684 842.531 384.746Z"/><path fill="#FBF8E9" d="M894.956 381.998C896.558 382.263 897.792 382.204 898.912 383.107L897.707 383.575L891.977 383.442L894.956 381.998Z"/><path fill="#BB1B18" d="M194.959 572.769L196.349 573.351C198.358 575.418 199.6 581.255 200.267 584.242C204.082 601.322 210.991 616.867 217.024 633.235C188.229 642.358 165.263 650.057 134.385 646.936C123.456 645.423 117.562 643.297 109.585 635.856C141.201 634.919 170.015 614.812 186.973 588.797C189.915 584.285 192.002 578.124 194.694 573.243L194.959 572.769Z"/><path fill="#F17E1E" d="M127.766 637.381C131.951 636.05 136.316 634.661 140.413 633.114C162.873 624.631 185.859 603.953 195.548 581.841C197.891 595.336 202.599 607.163 207.672 619.799C209.187 621.88 211.5 628.363 212.51 631.063C188.845 640.878 147.682 651.166 123.88 640.628C127.221 640.432 136.862 638.453 138.705 635.845C134.766 636.298 132.095 637.359 127.766 637.381Z"/><path fill="#F8F8F6" d="M127.766 637.381C131.951 636.05 136.316 634.661 140.413 633.114C162.873 624.631 185.859 603.953 195.548 581.841C197.891 595.336 202.599 607.163 207.672 619.799C204.416 617.459 196.27 591.811 194.648 586.696C184.391 606.148 171.638 625.855 149.286 632.749C145.767 633.808 142.24 634.84 138.705 635.845C134.766 636.298 132.095 637.359 127.766 637.381Z"/><path fill="#BB1B18" d="M388.274 806.226C390.275 806.75 393.541 808.234 395.499 809.119C412.19 816.666 429.182 821.247 446.748 826.153C438.777 851.754 431.756 873.772 413.631 894.262C409.564 898.515 393.54 913.596 387.495 912.399C386.572 910.583 389.338 907.155 390.247 905.443C401.308 884.141 403.093 866.015 397.618 842.717C396.056 836.071 387.657 810.214 388.274 806.226Z"/><path fill="#F17E1E" d="M392.429 811.963C400.228 815.309 430.711 826.733 438.571 827.384C440.28 828.158 440.784 827.977 441.266 829.24C440.547 833.727 438.516 838.804 436.958 843.126C431.452 858.393 424.253 876.205 413.372 888.383C411.058 893.364 399.163 902.656 394.567 905.757C412.39 866.168 402.683 850.141 392.429 811.963Z"/><path fill="#F8F8F6" d="M438.571 827.384C440.28 828.158 440.784 827.977 441.266 829.24C440.547 833.727 438.516 838.804 436.958 843.126C431.452 858.393 424.253 876.205 413.372 888.383C414.72 885.351 418.362 879.364 420.09 876.206C423.942 869.167 426.721 861.081 429.549 854.173C431.356 849.758 437.155 829.484 438.571 827.384Z"/><path fill="#BB1B18" d="M632.981 807.466C634.66 807.959 637.718 821.421 638.331 823.841C644.061 846.48 652.14 869.855 645.699 893.298C644.799 896.573 640.675 913.891 636.13 912.301C635.401 911.035 635.159 906.669 635.018 904.971C634.156 894.587 630.777 886.14 626.361 876.827C616.693 857.35 608.053 850.312 589.727 839.403C583.16 835.495 578.279 832.229 573.551 826.214C597.049 823.286 611.866 817.237 632.981 807.466Z"/><path fill="#F17E1E" d="M627.635 815.765C629.503 815.058 629.682 814.588 631.156 815.069C632.595 817.919 634.39 824.948 635.357 828.436C639.103 841.941 644.381 857.965 644.474 872.02C646.621 879.923 641.607 895.411 638.902 903.037C631.653 876.601 625.277 858.139 601.234 841.867C595.355 837.887 587.597 833.733 582.337 829.985L581.805 829.599C590.67 827.26 599.872 826.015 608.607 823.24C615.019 821.203 621.297 818.17 627.635 815.765Z"/><defs><linearGradient id="gradient_0" gradientUnits="userSpaceOnUse" x1="633.32135" y1="841.54956" x2="639.85376" y2="838.87885"><stop offset="0" stop-color="#F7F7E8"/><stop offset="1" stop-color="#FDFDFF"/></linearGradient></defs><path fill="url(#gradient_0)" d="M627.635 815.765C629.503 815.058 629.682 814.588 631.156 815.069C632.595 817.919 634.39 824.948 635.357 828.436C639.103 841.941 644.381 857.965 644.474 872.02C643.634 870.651 642.61 865.379 642.278 863.508C639.4 847.29 633.697 831.125 627.635 815.765Z"/></svg>