<?xml version="1.0" encoding="UTF-8" standalone="no"?>
<svg
   width="1024"
   height="1024"
   viewBox="0 0 1024 1024"
   version="1.1"
   id="svg75"
   sodipodi:docname="logo.svg"
   inkscape:version="1.4.3 (fcd0343856, 2026-01-01)"
   xmlns:inkscape="http://www.inkscape.org/namespaces/inkscape"
   xmlns:sodipodi="http://sodipodi.sourceforge.net/DTD/sodipodi-0.dtd"
   xmlns="http://www.w3.org/2000/svg"
   xmlns:svg="http://www.w3.org/2000/svg">
  <sodipodi:namedview
     id="namedview75"
     pagecolor="#ffffff"
     bordercolor="#000000"
     borderopacity="0.25"
     inkscape:showpageshadow="2"
     inkscape:pageopacity="0.0"
     inkscape:pagecheckerboard="0"
     inkscape:deskcolor="#d1d1d1"
     inkscape:zoom="0.53240169"
     inkscape:cx="325.88176"
     inkscape:cy="339.02973"
     inkscape:window-width="1920"
     inkscape:window-height="1003"
     inkscape:window-x="0"
     inkscape:window-y="0"
     inkscape:window-maximized="1"
     inkscape:current-layer="svg75" />
  <defs
     id="defs75">
    <linearGradient
       id="gradient_0"
       gradientUnits="userSpaceOnUse"
       x1="633.32135"
       y1="841.54956"
       x2="639.85376"
       y2="838.87885">
      <stop
         offset="0"
         stop-color="#F7F7E8"
         id="stop74" />
      <stop
         offset="1"
         stop-color="#FDFDFF"
         id="stop75" />
    </linearGradient>
  </defs>
  <g
     id="g75"
     transform="matrix(0.94249812,0,0,0.94249812,29.649157,29.489928)">
    <path
       fill="#bb1b18"
       d="M 505.287,208.008 C 673.499,204.195 813.036,337.3 817.16,505.505 821.283,673.71 688.437,813.492 520.24,817.927 351.603,822.373 211.374,689.103 207.24,520.458 203.105,351.813 336.635,211.831 505.287,208.008 Z"
       id="path2" />
    <path
       fill="#fbc72d"
       d="M 257.419,673.807 C 188.85,564.992 196.889,424.654 277.434,324.38 357.979,224.106 493.281,185.992 614.323,229.481 c 81.174,29.165 145.964,91.711 177.969,171.808 33.365,83.497 27.707,177.529 -15.427,256.423 C 725.608,751.464 628.545,811.07 521.747,814.379 414.949,817.688 314.382,764.206 257.419,673.807 Z"
       id="path3" />
    <path
       fill="#f8f8f6"
       d="M 257.419,673.807 C 188.85,564.992 196.889,424.654 277.434,324.38 357.979,224.106 493.281,185.992 614.323,229.481 c -3.243,1.036 -19.133,-4.229 -23.76,-5.299 -14.589,-3.376 -29.275,-6.336 -44.174,-7.965 -121.775,-13.065 -239.162,49.627 -296.029,158.098 -29.251,56.715 -39.101,129.594 -29.592,192.438 2.721,17.019 6.784,33.797 12.152,50.175 3.735,11.741 9.034,22.704 14.125,33.848 1.468,3.212 10.319,20.893 10.374,23.031 z"
       id="path4" />
    <path
       fill="#f8f8f6"
       d="m 776.865,657.712 c -0.761,-1.935 4.043,-10.119 5.176,-12.755 7.543,-17.556 13.492,-35.892 18.024,-54.404 11.556,-48.711 12.44,-99.345 2.593,-148.43 -1.759,-8.335 -3.719,-16.371 -5.953,-24.574 -0.993,-3.645 -4.712,-13.377 -4.413,-16.26 33.365,83.497 27.707,177.529 -15.427,256.423 z"
       id="path5" />
    <path
       fill="#bb1b18"
       d="M 504.1,258.452 C 644.907,253.73 762.812,364.189 767.274,505.004 771.735,645.819 661.058,763.52 520.235,767.721 379.78,771.912 262.453,661.586 258.003,521.139 253.553,380.691 363.661,263.161 504.1,258.452 Z"
       id="path6" />
    <path
       fill="#bb1b18"
       d="M 699.007,682.111 C 605.909,784.825 447.266,792.878 344.247,700.119 241.227,607.36 232.653,448.744 325.073,345.42 417.493,242.097 576.08,233.001 679.707,325.081 c 103.627,92.08 113.243,250.637 21.504,354.565 -0.729,0.827 -1.464,1.648 -2.204,2.465 z"
       id="path7" />
    <path
       fill="#fbf8e9"
       d="M 699.007,682.111 C 605.909,784.825 447.266,792.878 344.247,700.119 241.227,607.36 232.653,448.744 325.073,345.42 417.493,242.097 576.08,233.001 679.707,325.081 c 103.627,92.08 113.243,250.637 21.504,354.565 -21.372,-10.015 -38.508,-17.865 -54.869,-36.164 -3.936,-4.401 -7.79,-8.76 -10.654,-13.987 8.906,-3.57 17.775,-6.953 26.393,-11.468 54.669,-28.641 90.991,-85.507 66.639,-147.38 -13.001,-33.033 -37.396,-52.688 -68.132,-68.718 -6.883,-11.922 -16.059,-27.061 -25.842,-36.895 -67.056,-67.408 -178.738,-74.457 -259.622,-28.875 -67.762,38.187 -97.103,117.347 -56.465,186.48 17.766,30.225 43.909,52.268 74.5,68.541 -8.448,23.854 -18.099,40.693 -38.404,56.648 -4.2,3.647 -12.033,8.123 -14.836,12.818 -6.106,10.227 4.495,28.357 16.784,25.852 18.622,-3.797 39.697,-9.07 57.46,-15.641 6.713,-2.454 13.261,-5.337 19.604,-8.63 15.938,-8.361 31.701,-20.499 45.773,-31.612 3.991,-3.153 10.964,-8.61 14.28,-12.262 26.744,11.658 46.099,17.3 75.394,19.285 23.283,27.306 41.116,35.331 77.81,39.302 15.021,1.626 40.46,-2.408 51.983,5.171 z"
       id="path8" />
    <path
       fill="#fbf8e9"
       d="m 574.31,395.719 c 31.919,-1.48 63.585,6.295 91.19,22.388 87.464,51.583 70.729,151.314 -16.197,191.075 -11.987,5.483 -23.616,8.736 -36.362,11.988 9.162,20.718 17.543,28.63 33.789,43.659 -7.513,-1.161 -12.827,-2.123 -20.113,-4.247 -23.256,-7.551 -34.371,-16.054 -47.799,-36.327 l -0.775,0.055 c -7.196,0.452 -14.099,-0.491 -21.142,-1.328 -64.315,-7.657 -131.146,-63.803 -114.366,-134.18 10.163,-42.627 48.442,-72.673 88.519,-85.633 14.658,-4.74 27.924,-6.655 43.256,-7.45 z"
       id="path9" />
    <path
       fill="#bb1b18"
       d="m 517.449,478.326 c 13.726,-0.397 25.2,10.357 25.693,24.079 0.493,13.723 -10.179,25.272 -23.898,25.862 -13.856,0.595 -25.546,-10.207 -26.044,-24.067 -0.498,-13.859 10.386,-25.473 24.249,-25.874 z"
       id="path10" />
    <path
       fill="#bb1b18"
       d="m 642.907,478.849 c 13.644,-1.752 26.124,7.892 27.869,21.538 1.744,13.645 -7.908,26.119 -21.555,27.856 -13.635,1.734 -26.096,-7.908 -27.839,-21.542 -1.743,-13.634 7.892,-26.101 21.525,-27.852 z"
       id="path11" />
    <path
       fill="#bb1b18"
       d="m 579.975,478.602 c 13.648,-1.098 25.619,9.035 26.789,22.677 1.171,13.642 -8.9,25.666 -22.535,26.909 -13.738,1.251 -25.872,-8.911 -27.051,-22.655 -1.179,-13.745 9.047,-25.825 22.797,-26.931 z"
       id="path12" />
    <path
       fill="#fbf8e9"
       d="m 478.366,321.218 c 6.322,-0.559 14.404,-0.311 20.784,0.018 53.058,2.729 114.886,28.048 141.964,75.911 -35.126,-9.23 -60.226,-13.252 -96.617,-5.7 -38.408,8.244 -76.738,30.644 -97.501,64.494 -33.504,54.619 -10.085,116.721 40.807,150.011 7.734,5.059 15.716,8.772 23.201,13.536 -32.795,-9.768 -55.941,-19.98 -76.277,-49.367 -38.521,-55.664 -15.203,-123.634 38.406,-159.211 44.578,-29.584 97.023,-36.813 148.887,-26.856 -8.934,-12.792 -34.061,-28.194 -48.181,-35.113 -46.814,-22.939 -102.375,-26.911 -151.742,-9.357 -10.634,3.867 -19.97,8.144 -30.009,13.375 -88.389,46.065 -91.638,150.184 -9.966,205.486 13.231,8.959 25.088,14.619 39.859,21.409 -7.535,30.849 -22.321,61.355 -47.58,81.361 32.357,-4.841 74.58,-28.785 96.781,-52.854 l 6.932,3.54 c -16.019,14.308 -36.353,29.833 -55.311,39.564 -9.953,5.11 -62.764,22.229 -70.199,19.662 -1.082,-2.418 18.172,-16.971 22.386,-21.429 20.52,-21.712 27.675,-37.404 35.917,-65.263 -19.902,-11.272 -31.609,-16.207 -49.583,-32.11 C 336,530.171 315.499,497.135 314.58,462.464 312.194,372.438 400.946,325.293 478.366,321.218 Z"
       id="path13" />
    <path
       fill="#fbf8e9"
       d="m 388.673,441.126 c 13.235,-1.904 25.517,7.255 27.466,20.484 1.95,13.228 -7.168,25.542 -20.39,27.537 -13.285,2.004 -25.671,-7.168 -27.63,-20.46 -1.959,-13.293 7.254,-25.647 20.554,-27.561 z"
       id="path14" />
    <path
       fill="#bb1b18"
       d="m 249.857,103.242 c 3.322,1.838 21.035,19.478 25.238,23.097 l 71.628,60.937 c 7.43,6.387 21.516,17.465 27.779,23.826 -4.068,11.609 -16.167,24.33 -25.497,32.041 -16.286,13.925 -40.573,24.642 -62.191,24.871 -2.144,-6.411 -4.175,-17.256 -5.674,-24.182 l -7.95,-35.996 c -7.656,-34.83 -15.983,-69.78 -23.333,-104.594 z"
       id="path15" />
    <path
       fill="#fbc72d"
       d="m 261.949,123.816 c 1.765,1.683 3.52,3.376 5.266,5.079 2.861,2.007 5.437,4.351 8.056,6.66 9.394,8.282 19.05,16.263 28.634,24.322 13.502,11.394 26.938,22.864 40.307,34.412 6.54,5.547 15.657,12.542 21.694,18.22 -19.436,25.814 -37.343,39.632 -69.655,46.232 -1.557,0.297 -1.839,0.436 -3.44,0.286 -2.18,-3.021 -26.945,-120.177 -30.862,-135.211 z"
       id="path16" />
    <path
       fill="#f8f8f6"
       d="m 261.949,123.816 c 1.765,1.683 3.52,3.376 5.266,5.079 1.07,7.597 5.079,22.081 6.875,30.122 l 14.83,66.975 c 2.206,9.95 5.709,23.125 7.331,32.749 -1.557,0.297 -1.839,0.436 -3.44,0.286 -2.18,-3.021 -26.945,-120.177 -30.862,-135.211 z"
       id="path17" />
    <path
       fill="#bb1b18"
       d="m 815.652,650.416 c 1.559,-0.016 6.787,9.183 8.135,11.177 2.686,3.914 5.486,7.748 8.396,11.499 28.386,36.851 60.92,68.159 90.02,103.899 -14.799,-3.285 -29.832,-9.198 -44.953,-13.386 -40.054,-9.868 -78.944,-16.196 -119.722,-22.063 -0.527,-31.596 9.46,-60.537 36.589,-79.374 6.663,-4.626 14.282,-8.115 21.535,-11.752 z"
       id="path18" />
    <path
       fill="#fbc72d"
       d="m 809.735,661.172 c 1.801,-0.836 2.125,-1.375 3.764,-1.154 16.488,25.173 35.899,47.643 56.247,69.751 10.028,10.895 20.58,22.167 31.487,32.133 -2.172,-0.677 -4.57,-1.361 -6.68,-2.153 -17.871,-5.067 -35.96,-8.263 -54.06,-12.158 -24.819,-5.34 -49.561,-8.265 -74.554,-12.308 2.315,-33.035 15.355,-56.813 43.796,-74.111 z"
       id="path19" />
    <path
       fill="#f8f8f6"
       d="m 809.735,661.172 c 1.801,-0.836 2.125,-1.375 3.764,-1.154 16.488,25.173 35.899,47.643 56.247,69.751 10.028,10.895 20.58,22.167 31.487,32.133 -2.172,-0.677 -4.57,-1.361 -6.68,-2.153 -2.222,-3.869 -8.96,-6.792 -12.164,-10.148 -23.383,-24.492 -46.35,-50.353 -65.398,-78.409 -2.283,-3.363 -4.499,-7.078 -7.256,-10.02 z"
       id="path20" />
    <path
       fill="#bb1b18"
       d="m 104.491,250.125 c 38.737,9.507 75.771,17.065 114.683,25.54 l 29.663,6.447 c 5.122,1.076 12.844,2.302 17.513,3.969 1.388,26.73 -7.958,44.894 -24.51,65.081 -8.184,9.7 -21.696,19.328 -33.438,24.059 -1.733,-1.862 -3.327,-4.327 -4.885,-6.382 -16.877,-22.271 -34.693,-43.924 -52.195,-65.712 -10.925,-13.6 -23.572,-26.137 -34.857,-39.424 -3.242,-3.818 -9.63,-9.694 -11.974,-13.578 z"
       id="path21" />
    <path
       fill="#fbc72d"
       d="m 126.234,263.573 99.106,21.961 c 4.546,1.016 31.167,5.928 32.982,7.671 -0.024,1.173 -0.046,1.894 -0.186,3.055 -4.606,31.544 -20.615,53.484 -48.145,69.494 -13.697,-19.099 -30.933,-39.682 -45.688,-58.114 -10.244,-12.797 -22.037,-24.817 -31.951,-38.231 z"
       id="path22" />
    <path
       fill="#f8f8f6"
       d="m 126.234,263.573 99.106,21.961 c 4.546,1.016 31.167,5.928 32.982,7.671 -0.024,1.173 -0.046,1.894 -0.186,3.055 -5.714,-0.786 -18.57,-3.972 -24.662,-5.272 -19.358,-3.97 -38.651,-8.248 -57.873,-12.833 -14.254,-3.281 -29.271,-5.248 -43.249,-8.746 z"
       id="path23" />
    <path
       fill="#bb1b18"
       d="m 287.875,758.287 c 13.8,1.132 24.014,1.379 36.712,7.31 23.816,11.125 39.109,25.526 48.428,49.985 -9.642,8.688 -19.64,16.262 -29.529,24.63 l -49.141,42.345 c -14.883,13.306 -30.859,26.105 -45.604,39.354 2.713,-11.872 5.98,-23.119 8.757,-34.771 z"
       id="path24" />
    <path
       fill="#fbc72d"
       d="m 294.122,766.41 c 7.085,1.217 12.487,2.229 19.299,4.455 21.01,7.55 42.973,22.27 52.02,43.555 -22.343,15.636 -42.71,34.918 -63.61,52.49 -8.986,7.555 -21.861,19.467 -31.418,25.768 -2.989,2.817 -5.332,5.161 -8.12,8.172 2.593,-9.132 5.095,-22.181 7.4,-31.831 8.198,-34.325 15.755,-68.376 24.429,-102.609 z"
       id="path25" />
    <path
       fill="#f8f8f6"
       d="m 294.122,766.41 c 7.085,1.217 12.487,2.229 19.299,4.455 -2.36,1.311 -11.137,-0.602 -14.475,-0.926 -5.522,23.451 -12.143,46.887 -17.44,70.376 -3.179,14.102 -10.991,38.1 -11.093,52.363 -2.989,2.817 -5.332,5.161 -8.12,8.172 2.593,-9.132 5.095,-22.181 7.4,-31.831 8.198,-34.325 15.755,-68.376 24.429,-102.609 z"
       id="path26" />
    <path
       fill="#bb1b18"
       d="m 774.347,104.447 c 0.472,3.374 -28.413,122.134 -30.355,131.189 -0.85,3.967 -4.02,18.222 -4.993,23.238 -0.329,1.697 -1.076,3.898 -1.944,5.49 -1.305,0.894 -2.411,1.084 -3.978,1.158 -22.496,1.058 -41.954,-8.157 -58.633,-22.396 -11.252,-10.749 -17.204,-19.239 -24.338,-33.146 11.783,-8.393 31.044,-25.771 42.654,-35.713 z"
       id="path27" />
    <path
       fill="#fbc72d"
       d="m 662.804,215.451 c -0.907,-1.368 -1.602,-2.104 -1.72,-3.732 1.407,-2.075 19.936,-17.59 23.309,-20.468 26.247,-22.395 52.634,-43.354 78.131,-66.697 -0.618,2.829 -1.472,5.802 -2.22,8.614 -6.285,27.728 -12.776,55.409 -19.473,83.04 -2.8,11.836 -6.586,30.988 -10.204,42.232 -29.243,-3.923 -52.652,-16.93 -67.823,-42.989 z"
       id="path28" />
    <path
       fill="#f8f8f6"
       d="m 662.804,215.451 c -0.907,-1.368 -1.602,-2.104 -1.72,-3.732 1.407,-2.075 19.936,-17.59 23.309,-20.468 26.247,-22.395 52.634,-43.354 78.131,-66.697 -0.618,2.829 -1.472,5.802 -2.22,8.614 -5.331,3.013 -19.874,16.738 -25.577,21.538 z"
       id="path29" />
    <path
       fill="#bb1b18"
       d="m 730.473,757.708 c 6.176,-0.345 6.777,-0.385 8.044,5.787 9.509,46.296 19.547,92.363 31.88,138.006 1.963,7.263 4.119,14.448 6.071,21.705 -13.899,-13.953 -27.301,-25.38 -41.928,-38.57 -18.183,-15.393 -36.679,-30.413 -55.478,-45.049 -8.829,-6.883 -21.797,-15.567 -29.607,-23.439 2.923,-8.076 9.911,-18.398 15.546,-24.858 18.16,-20.819 38.309,-31.303 65.472,-33.582 z"
       id="path30" />
    <path
       fill="#fbc72d"
       d="m 709.425,771.27 c 7.308,-2.435 14.049,-4.219 21.779,-4.877 1.862,6.908 3.353,14.399 4.744,21.425 7.405,37.419 17.462,74.203 26.28,111.252 l -3.739,-3.949 c -2.949,-1.546 -14.214,-12.099 -17.69,-14.984 -8.624,-7.155 -17.285,-14.804 -25.968,-21.94 -18.524,-15.223 -37.657,-28.908 -56.174,-44.206 12.037,-17.338 29.456,-37.106 50.768,-42.721 z"
       id="path31" />
    <path
       fill="#f8f8f6"
       d="m 709.425,771.27 c 7.308,-2.435 14.049,-4.219 21.779,-4.877 1.862,6.908 3.353,14.399 4.744,21.425 7.405,37.419 17.462,74.203 26.28,111.252 l -3.739,-3.949 c -0.391,-2.022 -2.39,-7.291 -3.117,-9.756 -1.694,-5.751 -3.003,-11.091 -4.362,-16.945 l -22.735,-99.38 c -5.159,0.937 -13.955,2.969 -18.85,2.23 z"
       id="path32" />
    <path
       fill="#bb1b18"
       d="m 512.108,19.3561 c 1.129,2.8405 2.815,9.6228 3.694,12.7636 2.591,9.3341 5.228,18.655 7.913,27.9623 12.009,40.138 25.626,80.991 39.065,120.689 0.237,0.702 -0.728,2.114 -1.25,2.499 -13.415,9.9 -32.758,14.172 -48.405,15.003 -14.921,0.244 -39.536,-4.941 -50.61,-14.831 0.524,-2.249 1.228,-4.392 1.92,-6.591 12.164,-38.668 24.347,-77.3217 36.07,-116.1294 4.133,-13.684 7.334,-27.6936 11.603,-41.3655 z"
       id="path33" />
    <path
       fill="#fbc72d"
       d="m 512.382,45.9132 3.24,12.8956 c 6.531,23.0246 14.751,46.1392 22.083,69.0272 3.696,11.896 7.562,23.738 11.596,35.524 1.51,4.315 4.131,12.152 6.316,15.939 -22.502,10.837 -43.652,15.15 -68.836,7.947 -4.438,-1.27 -9.862,-4.656 -13.464,-5.74 l -1.05,-1.01 c -0.324,-2.699 5.662,-21.202 6.882,-24.971 11.796,-36.437 22.738,-72.7926 33.233,-109.6118 z"
       id="path34" />
    <path
       fill="#f8f8f6"
       d="m 512.382,45.9132 3.24,12.8956 c -4.316,4.9065 -10.899,29.4051 -13.259,36.8442 l -18.896,59.082 c -1.747,5.44 -6.983,22.534 -10.15,26.771 l -1.05,-1.01 c -0.324,-2.699 5.662,-21.202 6.882,-24.971 11.796,-36.437 22.738,-72.7926 33.233,-109.6118 z"
       id="path35" />
    <path
       fill="#bb1b18"
       d="m 840.757,462.556 c 11.958,4.32 23.919,7.435 36.089,11.069 l 50.624,15.526 47.997,15.103 c 8.772,2.749 16.703,5.64 25.703,7.954 -15.118,4.953 -36.059,11.243 -51.325,15.27 -23.12,6.821 -45.083,13.878 -67.94,21.563 -15.663,5.266 -27.538,8.228 -43.048,14.69 -17.521,-30.434 -15.55,-71.19 1.9,-101.175 z"
       id="path36" />
    <path
       fill="#fbc72d"
       d="m 844.601,472.638 c 1.26,-0.596 18.725,5.186 21.654,6.087 l 71.016,21.89 c 12.345,3.779 24.813,7.967 37.287,11.214 l -7.63,3.101 c -4.055,-0.079 -54.368,16.959 -60.93,19.226 -18.334,6.334 -45.709,12.288 -62.759,19.692 -0.833,-1.667 -1.604,-3.365 -2.312,-5.088 -10.031,-25.112 -6.749,-51.792 3.674,-76.122 z"
       id="path37" />
    <path
       fill="#f8f8f6"
       d="m 844.601,472.638 c 1.26,-0.596 18.725,5.186 21.654,6.087 l 71.016,21.89 c 12.345,3.779 24.813,7.967 37.287,11.214 l -7.63,3.101 c -6.4,-5.038 -65.013,-20.642 -77.374,-25.209 -10.762,-3.977 -31.256,-9.084 -42.419,-14.258 -1.279,-0.593 -1.916,-1.645 -2.534,-2.825 z"
       id="path38" />
    <path
       fill="#bb1b18"
       d="m 212.22,649.751 c 5.913,2.109 25.046,17.521 29.386,22.781 17.727,21.485 24.284,38.217 22.893,65.296 l -117.153,26.579 c -12.919,3.075 -31.469,6.655 -43.677,10.429 4.627,-5.636 10.023,-10.842 14.752,-16.421 30.473,-35.945 67.094,-69.824 93.799,-108.664 z"
       id="path39" />
    <path
       fill="#fbc72d"
       d="m 124.739,762.201 c 13.947,-14.455 27.838,-31.324 41.455,-46.233 16.545,-18.113 33.36,-36.07 49.159,-54.83 2.206,1.382 3.894,2.696 5.954,4.264 21.456,16.934 35.125,39.003 36.354,66.79 -13.141,3.488 -27.393,6.442 -40.732,9.464 -27.202,6.387 -54.517,12.283 -81.932,17.686 -2.505,0.509 -7.597,2.115 -10.258,2.859 z"
       id="path40" />
    <path
       fill="#f8f8f6"
       d="m 124.739,762.201 c 13.947,-14.455 27.838,-31.324 41.455,-46.233 16.545,-18.113 33.36,-36.07 49.159,-54.83 2.206,1.382 3.894,2.696 5.954,4.264 -12.161,12.974 -24.305,27.161 -36.425,39.764 l -31.313,33.06 c -4.844,5.158 -15.025,15.498 -18.572,21.116 -2.505,0.509 -7.597,2.115 -10.258,2.859 z"
       id="path41" />
    <path
       fill="#bb1b18"
       d="m 920.194,250.072 0.577,0.248 c -0.138,0.417 -26.403,28.092 -29.07,30.922 -18.484,19.639 -36.455,39.753 -53.897,60.322 -6.628,7.722 -20.862,25.546 -27.614,32.071 -12.31,-6.069 -19.344,-12.068 -28.592,-21.973 -15.714,-17.882 -24.061,-39.909 -23.523,-63.673 5.503,-1.978 14.375,-3.798 20.198,-5.1 l 30.649,-6.82 c 35.857,-8.048 76.025,-16.633 111.272,-25.997 z"
       id="path42" />
    <path
       fill="#fbc72d"
       d="m 766.498,298.166 c -0.241,-2.258 -0.63,-2.483 0.126,-4.284 9.568,-3 30.565,-7.171 40.982,-9.516 30.626,-6.894 60.556,-13.492 91.064,-20.98 -2.065,2.164 -4.157,4.304 -6.273,6.418 -8.897,11.054 -24.513,25.946 -34.589,37.359 L 824.838,345 c -4.776,5.571 -11.196,13.869 -16.006,18.912 -21.209,-15.128 -40.08,-38.906 -42.334,-65.746 z"
       id="path43" />
    <path
       fill="#f8f8f6"
       d="m 766.498,298.166 c -0.241,-2.258 -0.63,-2.483 0.126,-4.284 9.568,-3 30.565,-7.171 40.982,-9.516 30.626,-6.894 60.556,-13.492 91.064,-20.98 -2.065,2.164 -4.157,4.304 -6.273,6.418 -30.72,6.7 -61.534,13.121 -92.159,20.066 -9.278,2.105 -25.811,4.916 -33.74,8.296 z"
       id="path44" />
    <path
       fill="#bb1b18"
       d="m 184.867,463.028 c 3.552,2.59 8.889,19.311 9.898,23.901 6.011,27.37 2.092,52.608 -12.309,76.421 -5.732,-1.564 -14.045,-4.992 -19.924,-7.069 l -36.605,-12.598 c -17.532,-5.905 -36.1077,-10.502 -53.8957,-16.406 -16.159,-4.362 -33.635,-9.924 -49.6431,-14.969 26.2684,-7.27 53.5289,-15.783 79.9168,-23.476 l 48.507,-14.62 c 12.065,-3.736 22.183,-6.671 34.055,-11.184 z"
       id="path45" />
    <path
       fill="#fbc72d"
       d="m 49.5891,512.743 c 22.8426,-8.077 47.3662,-13.933 70.5829,-20.892 20.315,-6.089 40.639,-13.51 60.914,-19.542 1.444,0.631 1.258,1.234 2.128,3.169 8.209,17.353 8.154,50.727 1.182,68.664 -1.613,4.149 -3.041,7.23 -5.16,11.146 -35.715,-14.365 -71.545,-24.164 -108.1464,-35.826 -4.9372,-1.573 -10.3914,-3.042 -15.19,-4.899 -2.1387,-0.877 -4.074,-1.272 -6.3105,-1.82 z"
       id="path46" />
    <path
       fill="#f8f8f6"
       d="m 49.5891,512.743 c 22.8426,-8.077 47.3662,-13.933 70.5829,-20.892 20.315,-6.089 40.639,-13.51 60.914,-19.542 1.444,0.631 1.258,1.234 2.128,3.169 -22.517,7.211 -45.767,15.694 -68.186,22.242 l -39.9438,11.331 c -5.2989,1.491 -14.4063,3.727 -19.1846,5.512 -2.1387,-0.877 -4.074,-1.272 -6.3105,-1.82 z"
       id="path47" />
    <path
       fill="#bb1b18"
       d="m 502.845,827.207 c 15.311,-1.951 46.569,2.807 57.99,14.05 -6.211,12.436 -8.97,27.11 -12.95,40.47 -11.383,38.209 -23.719,77.411 -33.597,115.957 l -1.803,6.856 c -10.829,-37.281 -21.128,-74.738 -33.174,-111.693 -5.729,-17.573 -12.597,-34.567 -18.294,-52.464 10.332,-7.301 29.357,-12.074 41.828,-13.176 z"
       id="path48" />
    <path
       fill="#fbc72d"
       d="m 469.948,845.546 c 0.26,-1.289 -0.025,-1.31 0.931,-1.798 2.772,-1.415 6.833,-2.317 9.855,-3.237 18.926,-5.757 37.024,-6.906 56.256,-1.609 4.592,1.287 9.092,2.884 13.469,4.779 -9.557,29.172 -17.578,59.799 -26.168,89.338 -4.214,14.487 -9.112,29.834 -12.254,44.513 l -3.481,-12.601 c -1.15,-7.385 -6.61,-22.908 -8.912,-30.794 -6.703,-22.953 -14.015,-46.003 -22.179,-68.476 -1.408,-3.878 -5.763,-17.073 -7.517,-20.115 z"
       id="path49" />
    <path
       fill="#f8f8f6"
       d="m 469.948,845.546 c 0.26,-1.289 -0.025,-1.31 0.931,-1.798 2.772,-1.415 6.833,-2.317 9.855,-3.237 18.926,-5.757 37.024,-6.906 56.256,-1.609 4.592,1.287 9.092,2.884 13.469,4.779 -9.557,29.172 -17.578,59.799 -26.168,89.338 -4.214,14.487 -9.112,29.834 -12.254,44.513 l -3.481,-12.601 c 5.195,-6.908 14.158,-41.184 17.286,-51.339 6.808,-22.657 13.868,-45.238 21.179,-67.738 -16.635,-8.434 -40.244,-8.651 -58.17,-4.719 -5.512,1.209 -13.627,4.042 -18.903,4.411 z"
       id="path50" />
    <path
       fill="#bb1b18"
       d="m 385.949,109.135 c 0.524,0.122 1.799,0.52 1.867,0.899 0.29,1.622 0.358,7.436 0.429,8.64 0.267,4.293 0.98,8.547 2.125,12.693 7.054,25.432 30.725,48.039 53.556,59.886 3.939,2.043 7.857,4.017 11.714,6.225 -4.231,1.597 -21.018,5.241 -26.762,6.845 -14.957,4.291 -25.099,8.743 -38.892,15.67 -1.519,-7.431 -3.307,-16.285 -5.554,-23.456 -3.866,-12.338 -8.181,-23.153 -10.277,-36.016 -2.759,-16.939 1.565,-37.466 11.794,-51.386 z"
       id="path51" />
    <path
       fill="#f17e1e"
       d="m 384.131,117.783 c 3.22,27.96 17.482,47.145 38.997,64.758 7.185,5.881 13.092,8.834 20.57,13.84 -13.535,3.541 -38.476,10.27 -50,17.918 -0.835,0.067 -0.416,0.165 -1.195,-0.487 -5.276,-26.442 -19.909,-51.574 -13.996,-77.381 0.761,-5.959 3.31,-13.095 5.624,-18.648 z"
       id="path52" />
    <path
       fill="#f8f8f6"
       d="m 378.507,136.431 c 0.464,2.359 0.269,5.657 0.303,8.175 0.068,4.988 0.975,9.802 1.606,14.3 1.398,9.968 14.899,47.968 13.282,55.393 -0.835,0.067 -0.416,0.165 -1.195,-0.487 -5.276,-26.442 -19.909,-51.574 -13.996,-77.381 z"
       id="path53" />
    <path
       fill="#bb1b18"
       d="m 633.779,109.416 c 0.892,0.548 1.937,0.817 1.521,2.09 -1.445,4.427 -4.348,9.847 -6.178,14.087 -2.594,5.867 -4.428,12.04 -5.461,18.371 -3.201,20.588 -0.087,37.915 7.266,57.129 1.996,5.214 4.922,11.015 6.308,16.283 -7.715,-1.014 -29.848,-8.645 -39.245,-11.499 -10.748,-3.114 -17.916,-4.369 -28.593,-6.729 12.006,-13.652 15.371,-22.587 20.71,-39.664 6.159,-19.695 24.701,-41.215 43.672,-50.068 z"
       id="path54" />
    <path
       fill="#f17e1e"
       d="m 620.767,123.25 c 1.539,-1.765 4.757,-3.989 6.723,-5.471 -13.474,32.249 -11.965,57.109 1.375,89.55 0.692,1.681 1.397,3.357 2.114,5.028 -15.232,-4.685 -30.068,-10.395 -45.678,-13.718 -2.326,-0.496 -5.06,-0.965 -7.325,-1.587 l -0.095,-1.005 c 6.36,-9.99 9.874,-16.744 13.401,-28.041 5.82,-18.639 13.715,-32.757 29.485,-44.756 z"
       id="path55" />
    <path
       fill="#f8f8f6"
       d="m 620.767,123.25 c -0.65,1.336 -4.279,5.195 -5.423,6.392 -14.451,15.125 -19.716,34.433 -27.831,53.105 -1.403,3.227 -6.061,13.501 -9.537,14.305 l -0.095,-1.005 c 6.36,-9.99 9.874,-16.744 13.401,-28.041 5.82,-18.639 13.715,-32.757 29.485,-44.756 z"
       id="path56" />
    <path
       fill="#bb1b18"
       d="m 823.644,574.163 c 4.371,0.901 28.623,10.983 33.612,13.197 24.71,10.964 47.298,24.443 57.424,50.844 -7.496,-4.278 -13.491,-7.689 -21.555,-10.954 -27.56,-9.927 -52.424,-0.414 -78.561,8.954 -2.069,0.742 -4.361,1.151 -6.458,0.392 -0.959,-1.324 -0.872,-2.794 -0.214,-4.305 8.657,-19.895 12.766,-36.647 15.752,-58.128 z"
       id="path57" />
    <path
       fill="#f17e1e"
       d="m 826.532,578.897 c 7.065,0.942 52.547,25.123 60.587,31.353 5.284,4.094 9.43,7.157 13.588,12.561 1.277,1.148 2.812,3.568 3.846,5.057 -1.043,-0.69 -2.784,-1.841 -3.929,-2.329 -31.164,-13.278 -58.93,-2.963 -87.949,7.47 7.81,-19.288 12.78,-32.766 13.857,-54.112 z"
       id="path58" />
    <path
       fill="#f8f8f6"
       d="m 826.532,578.897 c 7.065,0.942 52.547,25.123 60.587,31.353 5.284,4.094 9.43,7.157 13.588,12.561 -0.363,-0.061 -12.96,-9.222 -14.351,-10.455 -6.551,-5.804 -57.408,-30.071 -59.824,-33.459 z"
       id="path59" />
    <path
       fill="#bb1b18"
       d="m 111.768,386.672 c 2.537,0.844 9.876,6.721 13.639,8.431 19.357,8.726 40.679,6.221 60.715,1.688 5.954,-1.347 26.795,-10.323 30.545,-8.389 0.415,2.105 -9.022,29.109 -10.39,33.647 -2.806,7.765 -4.422,17.44 -7.674,25.14 -7.744,-2.542 -15.967,-6.046 -23.618,-9.096 -15.083,-6.011 -31.404,-10.841 -44.174,-21.167 -9.469,-7.657 -17.744,-17.762 -19.043,-30.254 z"
       id="path60" />
    <path
       fill="#f17e1e"
       d="m 119.725,397.656 0.008,-0.298 c 0.696,-0.213 5.861,2.738 7.635,3.397 24.808,9.212 59.928,2.565 83.394,-8.043 l 0.515,0.441 -0.516,1.586 c -4.67,14.569 -10.806,32.572 -14.226,47.227 -13.365,-5.118 -26.951,-10.076 -40.234,-15.36 -9.747,-3.878 -34.792,-17.633 -36.576,-28.95 z"
       id="path61" />
    <path
       fill="#f8f8f6"
       d="m 119.725,397.656 0.008,-0.298 c 0.696,-0.213 5.861,2.738 7.635,3.397 24.808,9.212 59.928,2.565 83.394,-8.043 l 0.515,0.441 -0.516,1.586 c -6.942,1.04 -15.02,5.934 -22.117,8.118 -16.946,5.218 -37.466,6.949 -54.645,1.686 -6.363,-2.054 -8.937,-4.017 -14.274,-6.887 z"
       id="path62" />
    <path
       fill="#bb1b18"
       d="m 874.612,376.225 c 14.415,0.27 28.649,0.147 38.722,12.075 -6.543,0.181 -13.344,0.785 -19.489,3.161 -23.371,9.037 -44.673,24.323 -55.558,47.298 -3.331,8.729 -1.231,6.582 -10.099,8.728 -1.142,-2.877 -2.089,-6.102 -3.078,-9.061 -5.39,-16.136 -10.602,-32.147 -16.585,-48.078 15.806,-7.215 48.626,-13.439 66.087,-14.123 z"
       id="path63" />
    <path
       fill="#f17e1e"
       d="m 842.531,384.746 c 21.475,-5.333 31.177,-5.827 52.425,-2.748 1.602,0.265 2.836,0.206 3.956,1.109 l -1.205,0.468 c -4.699,2.219 -9.953,5.942 -14.697,8.285 -23.896,11.802 -38.817,24.865 -50.511,49.525 -3.435,-7.738 -6.015,-18.457 -8.622,-26.598 -2.476,-7.729 -5.1,-14.761 -7.972,-22.377 4.421,-1.715 22.414,-7.621 26.626,-7.664 z"
       id="path64" />
    <path
       fill="#f8f8f6"
       d="m 842.531,384.746 c 21.475,-5.333 31.177,-5.827 52.425,-2.748 l -2.979,1.444 c -6.908,-0.009 -14.946,-0.904 -22.117,-0.982 -5.383,-0.058 -25.161,3.224 -27.329,2.286 z"
       id="path65" />
    <path
       fill="#fbf8e9"
       d="m 894.956,381.998 c 1.602,0.265 2.836,0.206 3.956,1.109 l -1.205,0.468 -5.73,-0.133 z"
       id="path66" />
    <path
       fill="#bb1b18"
       d="m 194.959,572.769 1.39,0.582 c 2.009,2.067 3.251,7.904 3.918,10.891 3.815,17.08 10.724,32.625 16.757,48.993 -28.795,9.123 -51.761,16.822 -82.639,13.701 -10.929,-1.513 -16.823,-3.639 -24.8,-11.08 31.616,-0.937 60.43,-21.044 77.388,-47.059 2.942,-4.512 5.029,-10.673 7.721,-15.554 z"
       id="path67" />
    <path
       fill="#f17e1e"
       d="m 127.766,637.381 c 4.185,-1.331 8.55,-2.72 12.647,-4.267 22.46,-8.483 45.446,-29.161 55.135,-51.273 2.343,13.495 7.051,25.322 12.124,37.958 1.515,2.081 3.828,8.564 4.838,11.264 -23.665,9.815 -64.828,20.103 -88.63,9.565 3.341,-0.196 12.982,-2.175 14.825,-4.783 -3.939,0.453 -6.61,1.514 -10.939,1.536 z"
       id="path68" />
    <path
       fill="#f8f8f6"
       d="m 127.766,637.381 c 4.185,-1.331 8.55,-2.72 12.647,-4.267 22.46,-8.483 45.446,-29.161 55.135,-51.273 2.343,13.495 7.051,25.322 12.124,37.958 -3.256,-2.34 -11.402,-27.988 -13.024,-33.103 -10.257,19.452 -23.01,39.159 -45.362,46.053 -3.519,1.059 -7.046,2.091 -10.581,3.096 -3.939,0.453 -6.61,1.514 -10.939,1.536 z"
       id="path69" />
    <path
       fill="#bb1b18"
       d="m 388.274,806.226 c 2.001,0.524 5.267,2.008 7.225,2.893 16.691,7.547 33.683,12.128 51.249,17.034 -7.971,25.601 -14.992,47.619 -33.117,68.109 -4.067,4.253 -20.091,19.334 -26.136,18.137 -0.923,-1.816 1.843,-5.244 2.752,-6.956 11.061,-21.302 12.846,-39.428 7.371,-62.726 -1.562,-6.646 -9.961,-32.503 -9.344,-36.491 z"
       id="path70" />
    <path
       fill="#f17e1e"
       d="m 392.429,811.963 c 7.799,3.346 38.282,14.77 46.142,15.421 1.709,0.774 2.213,0.593 2.695,1.856 -0.719,4.487 -2.75,9.564 -4.308,13.886 -5.506,15.267 -12.705,33.079 -23.586,45.257 -2.314,4.981 -14.209,14.273 -18.805,17.374 17.823,-39.589 8.116,-55.616 -2.138,-93.794 z"
       id="path71" />
    <path
       fill="#f8f8f6"
       d="m 438.571,827.384 c 1.709,0.774 2.213,0.593 2.695,1.856 -0.719,4.487 -2.75,9.564 -4.308,13.886 -5.506,15.267 -12.705,33.079 -23.586,45.257 1.348,-3.032 4.99,-9.019 6.718,-12.177 3.852,-7.039 6.631,-15.125 9.459,-22.033 1.807,-4.415 7.606,-24.689 9.022,-26.789 z"
       id="path72" />
    <path
       fill="#bb1b18"
       d="m 632.981,807.466 c 1.679,0.493 4.737,13.955 5.35,16.375 5.73,22.639 13.809,46.014 7.368,69.457 -0.9,3.275 -5.024,20.593 -9.569,19.003 -0.729,-1.266 -0.971,-5.632 -1.112,-7.33 -0.862,-10.384 -4.241,-18.831 -8.657,-28.144 -9.668,-19.477 -18.308,-26.515 -36.634,-37.424 -6.567,-3.908 -11.448,-7.174 -16.176,-13.189 23.498,-2.928 38.315,-8.977 59.43,-18.748 z"
       id="path73" />
    <path
       fill="#f17e1e"
       d="m 627.635,815.765 c 1.868,-0.707 2.047,-1.177 3.521,-0.696 1.439,2.85 3.234,9.879 4.201,13.367 3.746,13.505 9.024,29.529 9.117,43.584 2.147,7.903 -2.867,23.391 -5.572,31.017 -7.249,-26.436 -13.625,-44.898 -37.668,-61.17 -5.879,-3.98 -13.637,-8.134 -18.897,-11.882 l -0.532,-0.386 c 8.865,-2.339 18.067,-3.584 26.802,-6.359 6.412,-2.037 12.69,-5.07 19.028,-7.475 z"
       id="path74" />
    <path
       fill="url(#gradient_0)"
       d="m 627.635,815.765 c 1.868,-0.707 2.047,-1.177 3.521,-0.696 1.439,2.85 3.234,9.879 4.201,13.367 3.746,13.505 9.024,29.529 9.117,43.584 -0.84,-1.369 -1.864,-6.641 -2.196,-8.512 -2.878,-16.218 -8.581,-32.383 -14.643,-47.743 z"
       id="path75"
       style="fill:url(#gradient_0)" />
  </g>
</svg>
